<svg xmlns="http://www.w3.org/2000/svg" width="415.948" height="81"><path fill="#FFF" d="M73.36 20.03H89.8c2.41 0 4.57.34 6.47 1 1.9.68 3.5 1.63 4.83 2.85a12.5 12.5 0 013.05 4.4c.71 1.71 1.07 3.6 1.07 5.67v.12c0 2.34-.43 4.39-1.27 6.15-.85 1.77-2 3.24-3.48 4.43a15.08 15.08 0 01-5.18 2.68c-1.97.6-4.1.89-6.35.89h-6.73V61.6h-8.86V20.03zm15.87 20.3c2.23 0 3.95-.58 5.18-1.75a5.75 5.75 0 001.84-4.34v-.11c0-2-.64-3.51-1.93-4.55s-3.04-1.55-5.26-1.55h-6.85v12.3h7.02zM112.19 20.03h8.86V61.6h-8.86V20.03zM241.52 43.47v8.24h-14.74v-8.24h14.74zM148.66 61.67c-2.95 0-5.7-.54-8.23-1.61a20.23 20.23 0 01-6.56-4.4 20.02 20.02 0 01-4.31-6.59 21.21 21.21 0 01-1.55-8.11v-.12a21.02 21.02 0 015.86-14.7c1.85-1.9 4.05-3.39 6.62-4.48 2.57-1.1 5.4-1.64 8.51-1.64 1.88 0 3.6.15 5.15.46 1.56.3 2.97.73 4.23 1.26a18.4 18.4 0 013.51 1.96c1.07.77 2.07 1.61 3 2.53l-5.64 6.5c-1.58-1.42-3.18-2.53-4.8-3.33s-3.47-1.21-5.5-1.21a11.2 11.2 0 00-8.4 3.68 12.62 12.62 0 00-2.42 4 13.56 13.56 0 00-.86 4.86v.11c0 1.73.29 3.36.86 4.9s1.37 2.87 2.39 4.02a11.15 11.15 0 008.43 3.74c2.3 0 4.24-.42 5.84-1.27 1.59-.84 3.17-1.99 4.74-3.45l5.64 5.7a29.2 29.2 0 01-3.22 2.99 19.16 19.16 0 01-8 3.71c-1.57.33-3.33.49-5.29.49zM327.23 61.67a22 22 0 01-8.57-1.64 21.37 21.37 0 01-6.76-4.43 19.85 19.85 0 01-4.43-6.56 20.68 20.68 0 01-1.58-8.08v-.12c0-2.87.53-5.57 1.6-8.08a20.76 20.76 0 0111.25-11.1c2.63-1.1 5.5-1.64 8.6-1.64 3.11 0 5.97.54 8.57 1.64 2.61 1.09 4.87 2.57 6.77 4.43a19.85 19.85 0 014.43 6.55 20.67 20.67 0 011.58 8.09v.11c0 2.88-.54 5.57-1.61 8.09a20.86 20.86 0 01-4.46 6.61c-1.9 1.9-4.16 3.4-6.79 4.49a22.2 22.2 0 01-8.6 1.64zm.11-8.17c1.77 0 3.4-.33 4.9-.98s2.76-1.55 3.82-2.7a13.2 13.2 0 003.37-8.86v-.12c0-1.72-.3-3.35-.9-4.89a12.17 12.17 0 00-6.41-6.76c-1.5-.67-3.13-1-4.9-1-1.8 0-3.43.32-4.9.98a11.23 11.23 0 00-3.8 2.7 12.73 12.73 0 00-2.48 4 13.2 13.2 0 00-.9 4.86v.11c0 1.73.3 3.36.9 4.9a12.2 12.2 0 006.38 6.75c1.48.67 3.12 1 4.92 1z"/><path fill="#FFF" d="M297.37 32.69a19.36 19.36 0 00-4.4-6.53 20.37 20.37 0 00-6.79-4.34 23.29 23.29 0 00-8.66-1.56h-15.7V41l8.86 9.38V28.47h6.84a13 13 0 014.95.91c1.5.61 2.77 1.47 3.83 2.57a11.8 11.8 0 012.47 3.96c.6 1.53.9 3.2.9 5.02v.12c0 1.85-.3 3.52-.9 5.02-.6 1.5-1.42 2.8-2.47 3.9a10.63 10.63 0 01-3.83 2.53c-1.5.6-3.14.89-4.95.89h-8.44l-30.93-33.37h-7.97l-26.52 28.76a22.7 22.7 0 01-4.75 3.45c-1.59.85-3.54 1.27-5.84 1.27a11.07 11.07 0 01-8.43-3.74 12.82 12.82 0 01-2.38-4.03 13.82 13.82 0 01-.87-4.89v-.11c0-1.73.3-3.35.87-4.86a12.62 12.62 0 012.41-4 11.08 11.08 0 018.4-3.68c2.03 0 3.87.4 5.5 1.2 1.63.81 3.23 1.92 4.8 3.34l5.64-6.5a23.77 23.77 0 00-3-2.53 18.36 18.36 0 00-3.5-1.96 21.54 21.54 0 00-4.23-1.26c-1.55-.3-3.27-.46-5.15-.46-3.1 0-5.94.54-8.51 1.64a20.01 20.01 0 00-10.93 11.1 21 21 0 00-1.56 8.08v.12c0 2.87.52 5.58 1.56 8.11a20.02 20.02 0 004.31 6.59 20.2 20.2 0 006.56 4.4 20.86 20.86 0 008.23 1.6c1.95 0 3.72-.16 5.29-.48a18.95 18.95 0 008-3.71 29.47 29.47 0 003.22-3l24.85-27.94.01.04.02-.04 31.4 35.07h11.94c3.15 0 6.04-.53 8.66-1.6a20.74 20.74 0 006.8-4.37 19.27 19.27 0 004.4-6.55 21.2 21.2 0 001.54-8.15v-.12c0-2.91-.51-5.62-1.55-8.12z"/></svg>