<?xml version="1.0" encoding="utf-8"?>
<!-- Generator: Adobe Illustrator 16.0.0, SVG Export Plug-In . SVG Version: 6.00 Build 0)  -->
<!DOCTYPE svg PUBLIC "-//W3C//DTD SVG 1.1//EN" "http://www.w3.org/Graphics/SVG/1.1/DTD/svg11.dtd">
<svg version="1.1" id="Layer_1" xmlns="http://www.w3.org/2000/svg" xmlns:xlink="http://www.w3.org/1999/xlink" x="0px" y="0px"
	 width="415.948px" height="81px" viewBox="0 0 415.948 81" enable-background="new 0 0 415.948 81" xml:space="preserve">
<g>
	<g>
		<g>
			<g>
				<path fill="#FFFFFF" d="M73.355,20.03h16.453c2.416,0,4.573,0.336,6.473,1.007c1.898,0.671,3.508,1.62,4.832,2.847
					c1.322,1.229,2.338,2.695,3.049,4.401c0.709,1.707,1.063,3.595,1.063,5.667v0.114c0,2.34-0.422,4.393-1.265,6.156
					c-0.846,1.765-2.004,3.241-3.48,4.43c-1.478,1.19-3.203,2.081-5.178,2.675c-1.977,0.596-4.094,0.893-6.357,0.893h-6.73v13.376
					h-8.859V20.03z M89.233,40.337c2.224,0,3.949-0.583,5.178-1.754c1.228-1.169,1.841-2.617,1.841-4.343v-0.115
					c0-1.994-0.643-3.51-1.928-4.545s-3.04-1.553-5.264-1.553h-6.846v12.311H89.233z"/>
			</g>
		</g>
		<g>
			<g>
				<path fill="#FFFFFF" d="M112.187,20.03h8.859v41.566h-8.859V20.03z"/>
			</g>
		</g>
		<g>
			<g>
				<path fill="#FFFFFF" d="M241.521,43.465v8.241h-14.745v-8.241H241.521z"/>
			</g>
		</g>
		<g>
			<g>
				<path fill="#FFFFFF" d="M148.66,61.669c-2.953,0-5.695-0.538-8.227-1.611c-2.53-1.072-4.717-2.541-6.559-4.401
					c-1.84-1.858-3.279-4.056-4.314-6.587c-1.035-2.529-1.553-5.235-1.553-8.111v-0.115c0-2.876,0.518-5.569,1.553-8.083
					c1.035-2.512,2.475-4.717,4.314-6.615c1.842-1.899,4.047-3.394,6.617-4.488c2.568-1.093,5.406-1.639,8.514-1.639
					c1.879,0,3.596,0.153,5.148,0.459c1.554,0.307,2.963,0.729,4.229,1.266c1.266,0.538,2.436,1.19,3.51,1.957
					c1.072,0.768,2.07,1.61,2.99,2.531l-5.637,6.501c-1.573-1.419-3.174-2.532-4.804-3.337s-3.462-1.208-5.494-1.208
					c-1.688,0-3.251,0.326-4.688,0.979c-1.438,0.652-2.675,1.553-3.711,2.703c-1.035,1.151-1.84,2.483-2.416,3.999
					c-0.576,1.515-0.863,3.136-0.863,4.86v0.115c0,1.726,0.287,3.357,0.863,4.891s1.371,2.877,2.387,4.027s2.244,2.063,3.682,2.732
					c1.439,0.672,3.021,1.006,4.747,1.006c2.302,0,4.247-0.422,5.839-1.266c1.591-0.844,3.174-1.993,4.746-3.452l5.637,5.696
					c-1.035,1.113-2.109,2.109-3.221,2.992c-1.112,0.882-2.329,1.639-3.652,2.272c-1.324,0.632-2.771,1.112-4.344,1.438
					C152.379,61.505,150.615,61.669,148.66,61.669z"/>
			</g>
		</g>
		<g>
			<g>
				<path fill="#FFFFFF" d="M327.229,61.669c-3.106,0-5.963-0.548-8.571-1.639c-2.608-1.095-4.86-2.569-6.761-4.43
					c-1.897-1.861-3.375-4.047-4.43-6.56c-1.054-2.511-1.58-5.207-1.58-8.083v-0.115c0-2.876,0.536-5.569,1.611-8.083
					c1.072-2.512,2.56-4.717,4.457-6.615c1.898-1.899,4.161-3.394,6.788-4.488c2.628-1.093,5.493-1.639,8.601-1.639
					c3.106,0,5.963,0.546,8.571,1.639c2.608,1.094,4.862,2.57,6.761,4.431c1.897,1.861,3.375,4.046,4.43,6.558
					c1.054,2.512,1.582,5.205,1.582,8.082v0.115c0,2.877-0.538,5.573-1.61,8.084c-1.075,2.513-2.56,4.717-4.458,6.615
					c-1.9,1.897-4.163,3.394-6.79,4.488C333.201,61.121,330.336,61.669,327.229,61.669z M327.344,53.499
					c1.765,0,3.394-0.325,4.89-0.978s2.771-1.552,3.827-2.704c1.054-1.15,1.879-2.482,2.473-3.998
					c0.594-1.514,0.893-3.135,0.893-4.861v-0.115c0-1.727-0.299-3.355-0.893-4.89c-0.594-1.534-1.438-2.876-2.531-4.028
					c-1.092-1.15-2.387-2.061-3.883-2.732c-1.496-0.67-3.125-1.006-4.891-1.006c-1.802,0-3.442,0.326-4.918,0.979
					c-1.478,0.652-2.742,1.553-3.796,2.703c-1.057,1.151-1.88,2.483-2.476,3.999c-0.594,1.515-0.891,3.136-0.891,4.86v0.115
					c0,1.726,0.297,3.357,0.891,4.891c0.596,1.533,1.439,2.877,2.531,4.027c1.095,1.15,2.378,2.063,3.854,2.732
					C323.902,53.165,325.541,53.499,327.344,53.499z"/>
			</g>
		</g>
		<g>
			<path fill="#FFFFFF" d="M297.371,32.688c-1.035-2.499-2.503-4.674-4.401-6.525c-1.897-1.85-4.161-3.296-6.788-4.34
				c-2.627-1.042-5.515-1.565-8.658-1.565h-15.706v20.749l8.859,9.382V28.467h6.847c1.802,0,3.452,0.307,4.948,0.916
				c1.494,0.611,2.771,1.468,3.824,2.569c1.055,1.102,1.88,2.42,2.474,3.956c0.596,1.536,0.893,3.209,0.893,5.02v0.119
				c0,1.851-0.297,3.523-0.893,5.02c-0.594,1.496-1.419,2.795-2.474,3.898c-1.054,1.102-2.33,1.947-3.824,2.539
				c-1.496,0.589-3.146,0.886-4.948,0.886h-8.448l-30.928-33.371h-7.969l-26.521,28.763c-1.573,1.459-3.156,2.608-4.745,3.452
				c-1.592,0.844-3.539,1.266-5.841,1.266c-1.727,0-3.307-0.334-4.746-1.006c-1.438-0.67-2.666-1.582-3.682-2.732
				c-1.017-1.15-1.812-2.494-2.388-4.027c-0.575-1.533-0.862-3.165-0.862-4.891v-0.115c0-1.725,0.287-3.346,0.862-4.86
				c0.576-1.516,1.382-2.848,2.417-3.999c1.035-1.15,2.271-2.051,3.711-2.703c1.438-0.652,3-0.979,4.688-0.979
				c2.033,0,3.865,0.403,5.494,1.208c1.63,0.805,3.23,1.918,4.805,3.337l5.638-6.501c-0.921-0.921-1.919-1.764-2.992-2.531
				c-1.073-0.767-2.243-1.419-3.509-1.957c-1.267-0.537-2.674-0.958-4.229-1.266c-1.552-0.307-3.27-0.459-5.149-0.459
				c-3.106,0-5.944,0.546-8.513,1.639c-2.57,1.094-4.776,2.589-6.617,4.488c-1.841,1.898-3.279,4.104-4.314,6.615
				c-1.036,2.514-1.554,5.207-1.554,8.083v0.115c0,2.876,0.518,5.582,1.554,8.111c1.035,2.531,2.474,4.729,4.314,6.587
				c1.841,1.86,4.027,3.329,6.559,4.401c2.531,1.073,5.273,1.611,8.227,1.611c1.955,0,3.721-0.164,5.293-0.489
				c1.571-0.325,3.021-0.806,4.344-1.438c1.322-0.634,2.541-1.391,3.653-2.272c1.11-0.883,2.186-1.879,3.222-2.992l24.852-27.95
				l0.014,0.042l0.017-0.042l31.402,35.068h11.942c3.144,0,6.031-0.53,8.658-1.595c2.627-1.063,4.891-2.518,6.788-4.368
				c1.898-1.852,3.366-4.034,4.401-6.557c1.036-2.518,1.553-5.233,1.553-8.149V40.81C298.924,37.896,298.407,35.191,297.371,32.688z
				"/>
		</g>
	</g>
</g>
</svg>
