<svg xmlns="http://www.w3.org/2000/svg" viewBox="0 0 1189.08 604.09"><defs><style>.cls-1{fill:#b30000;}.cls-2{fill-rule:evenodd;}</style></defs><title>logo-wienerberger-cbme-transp</title><path d="M608.7 242.7l26.84-26.94v67.87l-26.84 26.93V242.7zM497.4 269.17l26.83-26.93v41.37l-26.84 26.94v-41.37zM530.1 228l33.48-33.2v82.55l-33.5 33.2V228zM569.36 188.76l33.5-33.48v121.8l-33.5 33.47v-121.8z" class="cls-1"/><path d="M264.5 329.4h-27.38l-12.06 53.14h-.28l-12.06-53.14h-22.9l-12.35 53.14h-.27l-11.8-53.14h-27.24l24.26 96.8h27.1l11.54-50.84h.27l11.8 50.83h26.3l25.07-96.8z"/><path d="M267.22 426.2h26.84v-70.37h-26.84v70.36zm26.84-96.8h-26.84v18.84h26.84V329.4zM327.14 383.08c1.22-7.6 5.83-11.8 13.83-11.8a11.54 11.54 0 0 1 11.8 11.8zm51.38 14c0-27.4-12.06-43-40-43-22.24 0-37.15 16.68-37.15 37.14 0 23.46 16.95 36.74 39.45 36.74 16 0 30.78-7.05 36.2-22.23H352c-2.17 3.4-6.92 5-11.25 5-8.4 0-13-5.7-13.7-13.7z" class="cls-2"/><path d="M386.25 426.2h26.85v-37.15c0-11.25 6.1-13.56 10.7-13.56 7.87 0 8.82 5.68 8.82 13.82v36.87h26.84v-48.27c0-16.13-11.52-23.86-24.13-23.86-10.7 0-17.9 3.66-22.9 10.7h-.28v-8.94h-25.9v70.36z"/><path d="M492.08 383.08c1.22-7.6 5.83-11.8 13.83-11.8a11.54 11.54 0 0 1 11.8 11.8zm51.38 14c0-27.4-12.07-43-40-43-22.23 0-37.14 16.68-37.14 37.14 0 23.46 16.95 36.74 39.45 36.74 16 0 30.77-7.05 36.2-22.23H516.9c-2.18 3.4-6.93 5-11.27 5-8.4 0-13-5.7-13.7-13.7z" class="cls-2"/><path d="M550.06 426.2h26.84v-27.8c0-15 5.7-21.28 16.27-21.28 5.43 0 6.37.54 9.1 1.35v-23.72a19.17 19.17 0 0 0-6.4-.68c-9.75 0-15.44 4.6-19.78 13h-.28v-11.24h-25.76v70.36z"/><path d="M658.18 390.94c0 8.4-2.17 17.5-11.8 17.5s-11.8-9.1-11.8-17.5c0-8.26 2.18-17.35 11.8-17.35s11.8 9.08 11.8 17.34zM608.7 426.2h25.9v-7.73h.26c3.4 4.47 7.46 9.48 20.6 9.48C675.4 428 685 408.3 685 390.67c0-16.54-6.37-36.6-30-36.6-8 0-15.18 3.53-19.25 9.5h-.27V329.4H608.7v96.8zM716 383.08c1.22-7.6 5.83-11.8 13.83-11.8a11.54 11.54 0 0 1 11.8 11.8zm51.38 14c0-27.4-12.07-43-40-43-22.23 0-37.15 16.68-37.15 37.14 0 23.46 16.95 36.74 39.45 36.74 16 0 30.78-7.05 36.2-22.23H740.8c-2.17 3.4-6.92 5-11.26 5-8.4 0-13-5.7-13.7-13.7z" class="cls-2"/><path d="M774.26 426.2h26.84v-27.8c0-15 5.7-21.28 16.26-21.28 5.43 0 6.37.54 9.1 1.35v-23.72a19.17 19.17 0 0 0-6.4-.68c-9.74 0-15.44 4.6-19.77 13h-.3v-11.24h-25.74v70.36z"/><path d="M857.15 387.55c0-7.45 3.8-14 11.4-14 7.86 0 11.66 6.1 11.66 13.83s-1.08 16.27-11 16.27c-9.62 0-12.07-8.14-12.07-16.14zm49.22-31.72h-26.84v8.55h-.28c-3.1-7.2-10.57-10.3-18.43-10.3-20.06 0-30.5 15.3-30.5 33.6 0 18.85 9.35 33.22 30.1 33.22a22.14 22.14 0 0 0 18.83-9.75h.28v6.5c0 5.83-1.9 16.14-10.58 16.14-5.42 0-8.54-2.32-9.35-7.6H833c2.44 19 20.06 23.45 36.74 23.45 32.94 0 36.6-19.66 36.6-33.62v-60.2zM939 383.08c1.22-7.6 5.83-11.8 13.82-11.8a11.55 11.55 0 0 1 11.8 11.8zm51.38 14c0-27.4-12.07-43-40-43-22.24 0-37.15 16.68-37.15 37.14 0 23.46 16.94 36.74 39.45 36.74 16 0 30.78-7.05 36.2-22.23h-25.06c-2.17 3.4-6.92 5-11.25 5-8.4 0-13-5.7-13.7-13.7z" class="cls-2"/><path d="M997.12 426.2H1024v-27.8c0-15 5.7-21.28 16.27-21.28 5.4 0 6.37.54 9.08 1.35v-23.72a19.17 19.17 0 0 0-6.37-.68c-9.76 0-15.46 4.6-19.8 13h-.27v-11.24h-25.78v70.36z"/></svg>