<svg width="45" height="36" viewBox="0 0 45 36" fill="none" xmlns="http://www.w3.org/2000/svg">
<path fill-rule="evenodd" clip-rule="evenodd" d="M35 13H14V16H10V32H39V16H35V13Z" fill="white"/>
<path fill-rule="evenodd" clip-rule="evenodd" d="M0 17.1148L24.9498 0L36.8576 8.85246V1.77049L39.6928 2.36066V10.623L44.7962 14.4V15.9344L24.9498 1.77049L0 18.2951V17.1148ZM7.93857 15.3443V34.8197H3.40224V36H45V34.5653H41.6458V15.6706L24.9498 4.13115L7.93857 15.3443ZM19.8711 15.1133H20.6289V17.793L18.4609 14.1133H15.9883V15.1133H16.7812V19H15.9883V20H18.5664V19H17.8281V15.6719L20.375 20.0391H21.6797V15.1133H22.5V14.1133H19.8711V15.1133ZM22.9648 18.5742V20H24.3867V18.5742H22.9648ZM34.0039 14.1133H30.9961L29.6914 17.5586L28.4023 14.1133H25.4414V15.1133H26.2109V19H25.4414V20H27.9297V19H27.1719V15.1133H27.3086L29.1562 20H29.7852L31.6094 15.1133H31.7461V19H31.0352V20H34.0039V19H33.2422V15.1133H34.0039V14.1133ZM16.9297 25.1133V26.4805H17.9219V24.1133H12.5938V26.4805H13.5938V25.1133H14.4883V29H13.5938V30H16.8945V29H16.0156V25.1133H16.9297ZM20.7383 29V25.1133H21.6445V24.1133H18.3164V25.1133H19.2031V29H18.3164V30H21.6445V29H20.7383ZM24.293 29V25.1133H25.1562V24.1133H21.918V25.1133H22.7578V29H21.918V30H27.1836V27.1836H26.0312V29H24.293ZM31.6328 25.1133V25.9766H32.7617V24.1133H27.5703V25.1133H28.2812V29H27.5703V30H32.7617V28.1289H31.6328V29H29.8086V27.457H31.2812V26.4648H29.8086V25.1133H31.6328ZM36.0625 24.1133V24.6016C35.9401 24.4193 35.7852 24.2812 35.5977 24.1875C35.4102 24.0938 35.2018 24.0469 34.9727 24.0469C34.6862 24.0469 34.4206 24.1185 34.1758 24.2617C33.9336 24.4023 33.7435 24.5964 33.6055 24.8438C33.4674 25.0911 33.3984 25.3646 33.3984 25.6641C33.3984 26.0469 33.5286 26.3854 33.7891 26.6797C34.0521 26.974 34.474 27.2487 35.0547 27.5039C35.3958 27.6523 35.6367 27.8008 35.7773 27.9492C35.9206 28.0951 35.9922 28.2565 35.9922 28.4336C35.9922 28.6081 35.9297 28.7565 35.8047 28.8789C35.6823 29.0013 35.5312 29.0625 35.3516 29.0625C35.0833 29.0625 34.8698 28.9727 34.7109 28.793C34.5547 28.6107 34.4661 28.3464 34.4453 28H33.4453V30H34.4453V29.4961C34.7292 29.8789 35.1263 30.0703 35.6367 30.0703C36.1602 30.0703 36.5768 29.9141 36.8867 29.6016C37.1966 29.2865 37.3516 28.8594 37.3516 28.3203C37.3516 27.8672 37.2188 27.4896 36.9531 27.1875C36.6901 26.8854 36.2995 26.6224 35.7812 26.3984L35.543 26.2969C35.3138 26.1953 35.1419 26.1146 35.0273 26.0547C34.9128 25.9922 34.819 25.9167 34.7461 25.8281C34.6732 25.7396 34.6367 25.6341 34.6367 25.5117C34.6367 25.3737 34.694 25.2591 34.8086 25.168C34.9232 25.0768 35.0612 25.0312 35.2227 25.0312C35.4518 25.0312 35.638 25.1042 35.7812 25.25C35.9271 25.3932 36.0208 25.6081 36.0625 25.8945H37.0625V24.1133H36.0625Z" fill="#100F0F"/>
</svg>
